<?xml version="1.0" encoding="utf-8"?>
<!-- Generator: Adobe Illustrator 23.0.3, SVG Export Plug-In . SVG Version: 6.00 Build 0)  -->
<svg version="1.1" id="Layer_1" xmlns="http://www.w3.org/2000/svg" xmlns:xlink="http://www.w3.org/1999/xlink" x="0px" y="0px"
	 viewBox="0 0 1000 1000" style="enable-background:new 0 0 1000 1000;" xml:space="preserve">
<style type="text/css">
	.st0{fill:#D0D1DE;stroke:#D40041;stroke-width:0.9585;stroke-miterlimit:10;}
	.st1{fill:#E5E6ED;stroke:#D40041;stroke-width:0.9585;stroke-miterlimit:10;}
	.st2{fill:#FFFFFF;stroke:#D40041;stroke-width:0.9585;stroke-miterlimit:10;}
	.st3{fill:#110239;}
	.st4{fill:#FFFFFF;}
	.st5{fill:#E5E6ED;}
	.st6{fill:#01C7E2;}
	.st7{fill:#5BF935;}
	.st8{fill:#E45940;}
	.st9{fill:#FD425F;}
	.st10{fill:#E01F41;}
	.st11{fill:#F88667;}
</style>
<g>
	<g>
		<path class="st0" d="M411.3,686.1c-33.4-37.7-132-88.9-106.1-147.7c22-50,127.8-43.8,115.1-104.1c-7.5-35.6-17.3-66.1,5.7-106.6
			c25.1-44.2,100-20.1,126-61.1c22.3-35.2-6.7-89.6,39.4-113.2c40.9-20.9,90.4,19.9,97.7,56.1c9.2,45.2-35.6,66.5-41.3,105.8
			c-3.7,25.1,19.2,33.8,32.2,51.3c12.5,16.8,23.8,40.9,24.6,61.8c2.5,62.5-66,70.6-98.5,110.4c-30.1,36.8,25.4,60.5,17.1,100.6
			c-9,43.2-70.5,66.8-113.8,66.1C479.5,705,432,709.5,411.3,686.1z"/>
		<g>
			<path class="st0" d="M454.9,706.7c-0.3,0-0.5-0.1-0.8-0.2c-1.4-0.7-1.9-2.2-1-3.4c0.6-0.9,61.8-92.9,65.3-208.5
				c2.3-77.1,34.4-126.4,60.6-166.8c15.9-24.4,29.7-45.7,31.8-67.1c0.2-1.7,1.8-3.1,3.6-3c1.9,0.1,3.1,1.6,3,3.3
				c-2.3,22.9-16.6,44.8-32.9,69.8c-25.9,39.8-57.5,88.2-59.9,163.7c-3.8,117-65.8,210-66.4,210.9
				C457.5,706.4,456.2,706.9,454.9,706.7z"/>
		</g>
		<g>
			<path class="st0" d="M523.6,494.9c-1.5-0.3-2.5-1.5-2.3-2.9c0.2-1.5,1.7-2.7,3.4-2.6c25.9,1.6,60.5-13.6,71-38.8
				c1.3-3,2.5-6.4,3.8-9.9c6.3-17,14.3-38.2,30.9-45.9c8.1-3.7,17.6-3.7,27.9-0.2c1.6,0.6,2.3,2.2,1.6,3.8c-0.7,1.5-2.5,2.2-4.2,1.8
				c-8.9-3.1-16.3-3.1-22.9-0.1c-14.1,6.5-21.6,26.4-27.5,42.2c-1.4,3.6-2.6,7-3.9,10.1c-11.9,28.6-49.4,44.4-77.5,42.7
				C523.9,494.9,523.8,494.9,523.6,494.9z"/>
		</g>
		<g>
			<path class="st0" d="M505.2,492c-12-2.7-21.2-8-27.2-15.8c-9.6-12.4-11.1-31-4.2-54c0.7-2.3,1.6-4.9,2.5-7.8
				c5.4-16.4,13.6-41.5,5.5-55.5c-2.7-4.6-7-7.6-13.1-9.2c-1.7-0.4-2.7-2.1-2.2-3.7c0.5-1.6,2.3-2.6,4-2.2c0,0,0,0,0,0
				c7.8,2,13.5,6,17,12.1c9.4,16.1,0.6,42.7-5.1,60c-0.9,2.8-1.8,5.4-2.5,7.7c-6.4,21.3-5.2,38.2,3.3,49.2
				c7.3,9.3,20,14.5,37.7,15.5c1.8,0.1,3,1.4,2.8,3c-0.2,1.6-1.7,2.7-3.4,2.7C514.9,493.6,509.8,493,505.2,492z"/>
		</g>
		<g>
			<path class="st0" d="M490.5,670.3c-3.6-0.7-7-1.8-10-3.6c-1.3-0.8-1.6-2.4-0.6-3.6c1-1.2,2.8-1.5,4.2-0.7
				c15.5,9.4,47.1-2.8,60.5-12.3c5.6-3.9,10.6-10.8,15.9-18.1c9.5-13,19.5-26.6,35.1-27c1.7-0.1,3,1.1,2.9,2.5
				c-0.1,1.5-1.4,2.7-3.1,2.7c-12.4,0.4-21.3,12.6-30,24.4c-5.6,7.7-10.9,14.9-17.3,19.4C536.1,662.5,509.8,673.8,490.5,670.3z"/>
		</g>
		<g>
			<path class="st0" d="M465.1,664.6c-3.7-0.7-7.2-1.9-10.7-3.8c-19.5-10.4-31.1-37-34.1-52.5c-1.6-8.3,0.9-19.3,3.5-31
				c4.2-18.7,8.7-38.2-3.5-47.1c-1.3-1-1.5-2.7-0.4-3.9c1.1-1.2,3.1-1.4,4.4-0.4c15,11,9.9,33.1,5.5,52.4c-2.6,11.2-5,21.7-3.5,29.1
				c2.7,14,13.6,39.6,31.4,49.1c6.9,3.7,14.2,4.5,21.8,2.6c1.6-0.4,3.2,0.4,3.6,1.7c0.4,1.4-0.6,2.8-2.1,3.2
				C475.5,665.3,470.2,665.5,465.1,664.6z"/>
		</g>
	</g>
	<g>
		<path class="st1" d="M650.6,813c-57.3-14.1-102.7-26.9-103.9-87.6c-0.6-31.4,13.4-53.1,46.5-70.5c26.8-14.1,40.6-18.9,46.7-46.7
			c9.9-44.5-11.6-88.4,16.4-131.4c31.3-48,101.8-26.1,134.4-69.6c29.2-39.1,45.2-89.7,107-89c52,0.6,73.2,54.9,50.9,92.5
			c-12.5,21.2-34.4,36.1-43.3,58.8c-8.5,21.7,0.8,39.3,9.2,59.1c18.4,43.7,22.9,88.7-27.2,117.6c-30,17.3-53.1,32.4-42.3,64.8
			c11.3,34,16.4,53.4-24.9,79c-30.9,19.1-59,17.6-94.4,19.1c-33.2,1.4-77.6,10.5-109-3.9L650.6,813z"/>
		<g>
			<path class="st2" d="M669.2,781.5c-4.8-5.5-8.1-11.2-9.7-17.1c-6.9-25.5,17.3-51,39.2-74.1c11.1-11.6,21.6-22.8,26.6-32.3
				c13.5-25.9,17.6-48.9,14.7-85.1c-3.4-42.9,8.1-60.4,43.1-88.8c29.5-23.9,58.7-50.3,66.9-76.4c0.6-2,3.2-3.1,5.8-2.5
				c2.6,0.7,4.1,2.9,3.5,4.9c-8.8,27.8-39,54.9-69.4,79.5c-33.9,27.3-44.4,43.1-41.2,83.9c2.4,30.8,0.6,57.5-15.5,88.1
				c-5.3,10.1-16.2,21.5-27.5,33.4c-21.2,22.2-44.6,46.7-38.4,69.5c2.4,8.8,9,16.9,20.2,24.6c1.8,1.3,2.5,3.3,1.3,4.6
				c-1.2,1.2-3.6,1.2-5.5-0.1C677.6,789.8,673,785.7,669.2,781.5z"/>
		</g>
		<g>
			<path class="st2" d="M741.7,613.6c-0.6-0.7-1-1.4-1-2.2c-0.1-1.9,1.8-3.2,4.1-3c20.7,2.3,36-13.9,52.5-31.3
				c14.6-15.4,30-31.6,51-36.1c2.4-0.5,5.1,0.7,6,2.7c0.9,2-0.2,4-2.6,4.5c-18.4,3.8-33,19.2-47,33.8
				c-17.1,17.9-34.5,36.2-59.6,33.4C743.8,615.1,742.6,614.5,741.7,613.6z"/>
		</g>
		<g>
			<path class="st2" d="M725.2,666.4c-0.3-0.4-0.6-0.8-0.8-1.2c-2-5.1-2.9-9.5-3.7-13.7c-1.3-6.9-2.5-12.8-8.5-20.3
				c-3.2-4-6.8-7.4-10.2-10.8c-7.3-7.1-14.8-14.3-18.1-26c-4.8-16.6-4.5-37.4,1-61.8c0.8-3.4,2.5-8.2,4.4-13.2
				c2.7-7.3,7.8-21,6.1-24c-1-1.8-0.3-3.9,1.7-4.6c2-0.7,4.5,0.1,5.6,1.8c3.5,5.2,0.3,14.8-5.3,29.8c-1.8,4.9-3.5,9.5-4.2,12.6
				c-3.7,16.2-6.8,39.4-1.2,59c2.8,9.8,8.9,15.7,16,22.6c3.7,3.5,7.4,7.2,11,11.7c7.3,9.1,8.7,16.4,10.1,23.5
				c0.7,4,1.5,8.1,3.3,12.6c0.7,1.9-0.4,3.6-2.7,3.8C728.1,668.3,726.3,667.5,725.2,666.4z"/>
		</g>
	</g>
	<g>
		<path class="st0" d="M306.2,804.9c-63.4-11.5-122.8-6.6-148.5-76.1c-20.3-55,27.1-106.7-20.6-144.5c-28.7-22.7-74-36.4-84-75.2
			c-10.4-40.5,41.4-66.1,32.1-105c-7.7-32.1-52.2-34.2-40.6-76c10.3-37.1,42.9-46.4,68.9-39c34.7,9.9,37.5,41.6,60.5,63.6
			c15.4,14.7,37.1-0.1,59.6-2.8c22.4-2.7,51.2-0.7,70.2,9.2c61.7,32.1,12.3,100.2,23.5,155.7c10.8,53.6,86.3,21.2,125.3,61.4
			c45.5,47,11.2,128.3-33.7,166.7C388.9,768.4,349,812.7,306.2,804.9z"/>
		<g>
			<path class="st2" d="M367.4,790.9c-0.3,0.2-0.6,0.3-1,0.4c-2.1,0.5-4.2-0.7-4.7-2.7c-0.4-1.4-41.7-139.4-142.2-230.3
				c-56.6-51.1-70-104-80.6-145.2c-6.1-24.1-11.4-44.6-23.4-55.7c-1-0.9-0.9-2.7,0.2-4.1c1.1-1.4,2.8-1.7,3.8-0.8
				c13,11.9,18.4,33,24.8,57.9c10.4,40.7,23.8,92.9,79.6,142.9c102.5,92,144.7,232.1,145.2,233.6
				C369.5,788.4,368.8,790.1,367.4,790.9z"/>
		</g>
		<g>
			<path class="st2" d="M223.5,554.3c-1.3,1-3,0.9-4.1-0.2c-1.1-1.2-0.9-3.2,0.4-4.5c20.3-20,33.5-58.7,20.3-83
				c-1.6-2.9-3.4-5.9-5.3-9.1c-9-15.1-20-33.5-14.3-51.5c2.8-8.8,9.5-16.7,19.6-23.7c1.6-1.1,3.5-0.8,4.2,0.6c0.7,1.4,0,3.3-1.6,4.5
				c-8.8,6-14.1,12.2-16.4,19.3c-4.9,15.3,5.5,32.6,14,46.8c2,3.2,3.8,6.4,5.4,9.3c15.2,27.8,0.2,69.4-22,91.2
				C223.7,554.1,223.6,554.2,223.5,554.3z"/>
		</g>
		<g>
			<path class="st2" d="M207.8,567c-10.7,7.6-21.1,11.1-31.2,10.5c-15.6-1-29.7-12.1-41.1-31.8c-1.1-1.9-2.3-4.2-3.7-6.7
				c-7.5-13.9-18.6-34.6-32.3-36.5c-4.4-0.6-8.8,0.8-13.3,4.4c-1.3,1-2.8,0.8-3.5-0.5c-0.7-1.2-0.2-3,1-4.1c0,0,0,0,0,0
				c5.7-4.5,11.5-6.4,17.3-5.7c15.8,2.1,27.7,24,35.6,38.8c1.3,2.4,2.5,4.7,3.6,6.6c10.6,18.3,23.4,28.4,37.2,29.3
				c12.1,0.7,25-5.7,38.5-19.2c1.4-1.4,3.3-1.4,4.4-0.2c1.1,1.2,1,3.2-0.3,4.5C216.1,560.5,211.9,564,207.8,567z"/>
		</g>
		<g>
			<path class="st2" d="M360.6,724.2c-4,2.4-8.3,4.1-13,4.9c-2,0.3-4-0.9-4.3-2.9c-0.4-1.9,0.9-3.8,3-4.2
				c24.3-4.2,40.3-43.2,42.4-63.7c0.8-8.5-2.1-19.1-5.2-30.2c-5.4-19.6-11-39.7,2.8-54.3c1.5-1.7,3.9-1.8,5.5-0.6
				c1.6,1.2,1.6,3.5,0.2,5c-11,11.6-5.9,29.8-0.9,47.7c3.3,11.8,6.4,23,5.5,32.8C394.6,677.3,382.4,711,360.6,724.2z"/>
		</g>
		<g>
			<path class="st2" d="M331.6,740c-3.9,2.4-8.4,4.1-13.3,5.2c-27,5.9-61.4-9.6-77.5-21c-8.5-6-15.9-17.3-23.7-29.2
				c-12.1-18.5-24.4-37.2-39.9-34.8c-1.6,0.2-3.1-0.9-3.2-2.7c-0.1-1.7,1.1-3.3,2.8-3.6c19.1-3,33.1,18.2,45.7,37.3
				c7.5,11.3,14.7,22.2,22.2,27.5c14.7,10.3,47.5,25.1,72.1,19.7c9.8-2.2,17.2-7.4,21.8-15.5c1-1.7,3.2-2.3,5.1-1.4
				c1.8,1,2.5,3.1,1.4,4.9C341.6,732.1,337.1,736.7,331.6,740z"/>
		</g>
	</g>
	<g>
		<g>
			<path class="st3" d="M785.9,852.2h-565c-7.6,0-13.8-6.2-13.8-13.8V468.7c0-7.6,6.2-13.8,13.8-13.8h565c7.6,0,13.8,6.2,13.8,13.8
				v369.8C799.6,846.1,793.5,852.2,785.9,852.2z"/>
			<rect x="234.4" y="481.2" class="st4" width="510.8" height="340.6"/>
			<path class="st4" d="M781.2,653.6c0,5.9-4.8,10.7-10.7,10.7s-10.7-4.8-10.7-10.7c0-5.9,4.8-10.7,10.7-10.7
				S781.2,647.7,781.2,653.6z"/>
		</g>
		<g>
			<g>
				<path class="st5" d="M630.5,758.2H349.2c-7.8,0-14.1-6.3-14.1-14.1V563c0-7.8,6.3-14.1,14.1-14.1h281.3
					c7.8,0,14.1,6.3,14.1,14.1v181.2C644.6,752,638.3,758.2,630.5,758.2z"/>
				<rect x="349.2" y="565.6" class="st6" width="281.3" height="176"/>
			</g>
			<polygon class="st7" points="437.6,598.1 437.6,713.8 550.3,656 			"/>
		</g>
	</g>
	<g>
		<g>
			<path class="st3" d="M494.3,452.7c0,0-71.5-0.4-96.6-17.1c-25.1-16.7-29.5-83.3,7-110.5c36.5-27.2,44-35.6,45.6-53.5
				c1.6-17.9,1.2-58.6,48.4-58.8c46.3-0.2,42.3,37.8,45.8,61.9c2.5,16.8,25.6,41.6,45.8,57.1C616.4,351.7,645.5,469.5,494.3,452.7z"
				/>
			<path class="st8" d="M486.1,259.6l15.5,0.5l15.5,0.5c0,0,3.1,42.5,11.1,47.8c0,0,8.4,50.3-29.7,49.1
				c-46.2-1.4-26.6-50.9-26.6-50.9C480.2,301.8,486.1,259.6,486.1,259.6z"/>
			<path class="st9" d="M434.1,454.6h125.4L570,414c1.6-41.2,2.2-83.3,2.2-83.3c-17.9-14.5-46.7-24.9-46.7-24.9
				c-15.1,11.4-38.1,12.5-52.6,0c0,0-28.5,11.7-47.2,24.9c0,0-3.8,17.4-1.9,44.9C425.7,402.2,429.1,428.6,434.1,454.6z"/>
			<path class="st9" d="M616.9,454.6c-9.6-48.3-18.5-78.9-26.4-97.1c-10.3-23.7-18.2-26.8-18.2-26.8c-9.2-0.8-16.1,76-31.8,123.9
				L616.9,454.6L616.9,454.6z"/>
			<path class="st10" d="M559,384.9c-2.5,6.8-6.9,12.3-11.1,18.4c-3.9,5.5-14.5,36.1-56.3,33.2c-17.3-1.2-33.2-18.3-40.3-35.5
				c-2.9-7.1-4.3-14-5.8-21.5c-1.1-5.4-1.5-12.3-4.2-17.1c-5.2,1.3-5.8,9.1-7.6,13.6c-1.1,2.8-8.7,13.2-9.3,5.4
				c1.9,24.6,5.2,49.1,9.7,73.3h134.8C566.3,426.4,558.8,393.5,559,384.9z"/>
			<path class="st11" d="M536.2,267.1c-4.5-4.8-9.4,2.9-9.4,2.9s1.9-8.6,2.3-18.3c-10.3-5.7-20.7-12.4-30.5-15.4v-0.1
				c0,0-0.1,0-0.1,0c0,0-0.1,0-0.1,0v0.1c-9.7,3-20.2,9.7-30.5,15.4c0.4,9.7,2.3,18.3,2.3,18.3s-4.9-7.7-9.4-2.9
				c-4.5,4.8,6.6,17.7,9.1,19.3c0,0,9.1,22.1,20.5,29.5c3,1.9,12,2.4,16.5-0.4c11.4-7.4,20.1-29.1,20.1-29.1
				C529.6,284.8,540.6,272,536.2,267.1z"/>
			<g>
				<path class="st3" d="M529,243.8c0,0-15.7,27.7-54.4,25.1c0,0,1.9,3.3-0.4,9.2c0,0-2.8-10.9-8.8-7.5c-3.1,1.8-3.2,6.3,0.1,11.1
					c1.5,2.2-9.5-1.8-9.5-1.8s-4.5-42.1,23.4-51.7C507.2,218.5,529,243.8,529,243.8z"/>
				<path class="st3" d="M516.1,229.3c-0.3,2-0.6,4-0.6,6c0.1,4.3-6.1,7.4-6.3,11.6c0.9,0.9,1.7,1.9,2.5,3
					c5.2,6.5,7.5,10.3,9.3,18.4c0.5,2.3-0.8,3.9,2.8,10c0,0,2.7-11,9.4-9.3c1.3,0.3,3.9,2.3,1.6,7.8c-0.8,2,6.9-8.2,6.9-8.2
					S541.6,228.5,516.1,229.3z"/>
			</g>
		</g>
		<path class="st11" d="M461.9,640.3c1.5,3.4,9.2,8.6,6.5,13.2c-1.4,2.3-8.3-2.6-9.9-4.6c-2.2-2.8-17.2-26.1-19.5-32.8
			c-1.8-5.3-3.6-10.4-5.6-15.2c5.5-3.2,10.4-7.4,15-12c7.7,3.5,15.8,8.4,23.4,11.7c4,1.8,8.5,3,12.6,4.5c2.6,1,8.1,2.4,8.4,5.8
			c0.3,3.8-5.3,2.7-7.5,2.3c-3.2-0.6-9-3.7-11.2,0c-3.3,5.3,6.6,11.4,9.9,15c3.1,3.3,14.4,13.6,6.1,14.5
			c-1.7,0.2-13.4-9.9-15.3-11.2c0.4,0.5,7.9,7.8,8.3,8.3c1.9,2.6,7.6,8.1,5.9,10.8c-3.6,5.8-16-9.4-17.9-11.5c0,0,4.7,6,4.7,6
			c4,4.5,6.5,8.4,3.2,9.8C474.5,656.6,465.6,644.1,461.9,640.3z"/>
		<path class="st9" d="M460.2,593.7l-25.6,17.1c0,0-80.7-104.6-72-144.1C373,420,400.1,367.8,415,343.5c5.8-9.4,10.7-12.8,10.7-12.8
			c15.4,14.8,24.2,35.5,22.2,54.1c-0.9,8.3-4.9,13.7-9.4,22.1c-13.6,25.9-30.3,70.7-29.7,75.2C409.8,489.5,460.2,593.7,460.2,593.7z
			"/>
	</g>
</g>
</svg>
